<svg xmlns="http://www.w3.org/2000/svg" viewBox="0 0 24.43 41.05"><defs><style>.cls-1{isolation:isolate;}.cls-2{fill:#ccc;mix-blend-mode:multiply;}.cls-3{fill:#fff;}</style></defs><title>facebook</title><g class="cls-1"><g id="Layer_1" data-name="Layer 1"><polygon class="cls-2" points="11.39 25.21 5.36 19.17 0 19.17 6.02 25.21 11.39 25.21"/><path class="cls-2" d="M425.6,440.16,425.48,456h-6.56l6,6h6.56l.12-15.81H437c.31-2.09.58-4.17.89-6.33l-5.8-5.82c0-.06.07-.13.11-.18a.56.56,0,0,1,0-.08l.11-.11a1.57,1.57,0,0,1,.27-.25l.16-.1.3-.15.19-.07a3.29,3.29,0,0,1,.37-.1l.17,0a5.54,5.54,0,0,1,.6-.06l1.39,0h2.3l.05-5.64-6-6,0,5.63h-2.31l-1.39,0a5.35,5.35,0,0,0-.59.06l-.18,0a2.22,2.22,0,0,0-.37.09l-.18.07a1.77,1.77,0,0,0-.31.15l-.15.1a1.6,1.6,0,0,0-.27.25l-.09.08,0,0-.06.08c0,.05-.08.11-.11.17s0,.09-.07.14l0,.09,0,.07a3.25,3.25,0,0,0-.11.37v0l0,.16c0,.11,0,.22-.05.34a.86.86,0,0,1,0,.16c0,1.34-.08,4.31-.08,4.47l5.46,5.48-.12.85Z" transform="translate(-413.68 -420.97)"/><path class="cls-3" d="M427.49,421c.94,0,1.88,0,2.81.09.61,0,1.22.11,1.79.18l0,5.63h-2.31l-1.39,0c-1.49,0-2.59.6-2.67,2.47,0,1.34-.08,4.31-.08,4.47h6.22c-.3,2.16-.58,4.24-.88,6.33H425.6L425.48,456h-6.56l.12-15.83h-5.36l.05-6.3h5.39v-.47c0-1.27,0-2.54,0-3.81a15,15,0,0,1,.21-2.41,7.18,7.18,0,0,1,2.87-4.71A8.24,8.24,0,0,1,427,421Z" transform="translate(-413.68 -420.97)"/></g></g></svg>