<svg xmlns="http://www.w3.org/2000/svg" viewBox="0 0 37.02 37.03"><defs><style>.cls-1{isolation:isolate;}.cls-2{fill:#ccc;mix-blend-mode:multiply;}.cls-3{fill:#fff;}</style></defs><title>Insta</title><g class="cls-1"><g id="Layer_1" data-name="Layer 1"><path class="cls-2" d="M421.62,433.21a4.28,4.28,0,0,0-.68.25,2.58,2.58,0,0,0-.37.19,5.14,5.14,0,0,0-.55.35,2.16,2.16,0,0,0-.33.27,3.92,3.92,0,0,0-.46.45c-.06.06-.13.11-.18.17s-.08.13-.12.18l-.23.34-.16.23c-.05.09-.09.2-.14.29s-.08.17-.11.25l-.07.14q-.12.35-.21.69v0a.17.17,0,0,1,0,.07,6.53,6.53,0,0,0-.1.66c0,.1,0,.2,0,.31a5.43,5.43,0,0,0,0,.57c0,.11,0,.23.06.34l0,.22a5,5,0,0,0,.23.8l0,.06.06.14a7.3,7.3,0,0,0,.36.68l.12.18.08.13a6.68,6.68,0,0,0,.49.57h0l4.26,4.27c-.22,0-.44,0-.66,0a8,8,0,0,1-3.77-.95,8.39,8.39,0,0,1-1.82-1.36h0l6,6.05a7.87,7.87,0,0,0,5.58,2.31,8.14,8.14,0,0,0,.87-.05l.28-.05a5.62,5.62,0,0,0,.57-.09l.32-.09.5-.14.32-.12.46-.19.31-.15.44-.25.28-.16.44-.32.23-.17c.18-.14.35-.3.52-.46l.09-.08c.2-.2.38-.4.56-.61l0,0,0-.06a7.51,7.51,0,0,0,.72-1.05l0,0v0a8,8,0,0,0,.43-.94.37.37,0,0,0,.05-.11s0-.09,0-.13c.09-.26.17-.53.24-.8a.79.79,0,0,0,0-.13.06.06,0,0,0,0,0,8.48,8.48,0,0,0,.15-1,.29.29,0,0,0,0-.09c0-.19,0-.37,0-.56s0-.54,0-.81h0a8,8,0,0,0-.16-1c0-.09-.05-.18-.07-.26a6.18,6.18,0,0,0-.23-.73.83.83,0,0,0,0-.15.43.43,0,0,0,0-.07,6.53,6.53,0,0,0-.39-.85l-.09-.15c-.13-.22-.27-.44-.42-.65l-.07-.11-.09-.1a6.92,6.92,0,0,0-.67-.78h0l-6-6a8.21,8.21,0,0,1,.67.77c0,.07.11.14.16.22a7,7,0,0,1,.41.64l.09.15a9.37,9.37,0,0,1,.4.85c0,.07,0,.15.08.22a6.14,6.14,0,0,1,.22.73,2.68,2.68,0,0,1,.07.27,7.55,7.55,0,0,1,.16,1,7.32,7.32,0,0,1,0,.81c0,.21,0,.42,0,.62l-4.26-4.28a5.08,5.08,0,0,0-3.56-1.49h-.05a5.11,5.11,0,0,0-1.11.13C421.84,433.13,421.74,433.18,421.62,433.21Zm3.33,7.91c.09-.12.2-.24.3-.35a4.89,4.89,0,0,1,.46-.45l.33-.27a4,4,0,0,1,.56-.35c.12-.07.23-.14.36-.2a5.1,5.1,0,0,1,.69-.24l.34-.11a5.62,5.62,0,0,1,1.1-.12h.05a4.82,4.82,0,0,1,1.71.33c0,.14,0,.29-.06.43l-.05.17a7.36,7.36,0,0,1-.24.8l-.09.25a7.9,7.9,0,0,1-.44.93l0,.06a9.73,9.73,0,0,1-.72,1.05l-.07.09a8,8,0,0,1-.55.61l-.09.08c-.17.16-.34.32-.53.47l-.22.16-.45.32L427,445c-.15.08-.3.17-.45.24l-.3.15-.47.19-.32.12-.5.15-.31.08-.45.08a4.44,4.44,0,0,1-.21-.71,1.7,1.7,0,0,1,0-.22,5.5,5.5,0,0,1-.08-.91,5,5,0,0,1,.12-1,.15.15,0,0,1,0-.07,4.68,4.68,0,0,1,.27-.85l.12-.25a5.29,5.29,0,0,1,.29-.52Z" transform="translate(-407.54 -422.63)"/><path class="cls-2" d="M416.05,457a8.5,8.5,0,0,0,4,2.17,52.91,52.91,0,0,0,8.61.45,78,78,0,0,0,8.54-.34,8.92,8.92,0,0,0,1.44-.35c.15,0,.28-.1.42-.15a8.59,8.59,0,0,0,.88-.37l.42-.23q.39-.24.75-.51c.12-.09.24-.17.34-.26a6.8,6.8,0,0,0,.8-.81l.12-.11v0a7.56,7.56,0,0,0,.73-1.08l0,0c.06-.12.11-.25.17-.37s.25-.5.35-.77a.31.31,0,0,0,.05-.1,8.26,8.26,0,0,0,.33-1q0-.09.06-.21c0-.1,0-.23.06-.35s0,0,0-.06a6.45,6.45,0,0,0,.09-.69l0-.2c0-.23,0-.49.07-.75v-.12c0-.3,0-.62.06-1,0-.1,0-.21,0-.32s0-.49,0-.75,0-.27,0-.4,0-.51,0-.77,0-.26,0-.4c0-.31,0-.62,0-.94a1.93,1.93,0,0,1,0-.24c0-.4,0-.8,0-1.21v-2.43c0-.13,0-.26,0-.39,0-.3,0-.59,0-.88v-.24c0-.37,0-.72,0-1.06a1.34,1.34,0,0,0,0-.2c0-.27,0-.52,0-.77a2.53,2.53,0,0,0,0-.28c0-.2,0-.4,0-.58s0-.17,0-.26l0-.51a.91.91,0,0,0,0-.17c0-.19,0-.36,0-.49v0a8.33,8.33,0,0,0-.23-1.34c0-.14-.08-.27-.12-.41s-.12-.45-.2-.66-.07-.14-.1-.22-.11-.23-.16-.35a7.64,7.64,0,0,0-.47-.83,3,3,0,0,0-.19-.3s-.06-.11-.1-.15a7,7,0,0,0-.76-.89l-6-6a7.5,7.5,0,0,1,.85,1l.2.3a6.85,6.85,0,0,1,.46.84,2.6,2.6,0,0,1,.16.34,9.18,9.18,0,0,1,.31.88c0,.14.09.27.12.41a11.71,11.71,0,0,1,.23,1.34c0,.15,0,.33,0,.53s0,.13,0,.19,0,.31,0,.49h0L434,427.23a5.53,5.53,0,0,0-3.13-1.5,68.93,68.93,0,0,0-7.75-.3c-3.08,0-6.15.09-7.5.23a7,7,0,0,0-1.07.22l-.31.1c-.22.08-.44.16-.65.26l-.32.17c-.18.11-.36.22-.53.34l-.28.22a4.78,4.78,0,0,0-.45.45l-.17.17-.06.09a3.27,3.27,0,0,0-.25.36c-.06.09-.13.18-.19.28l-.05.11c-.05.1-.09.2-.14.31a3,3,0,0,0-.15.31c0,.06,0,.12-.05.18s-.08.25-.11.38a2.29,2.29,0,0,0-.09.28c0,.15-.06.29-.08.44s-.06.38-.08.6,0,.17,0,.26,0,.27,0,.43v.07c0,.07,0,.16,0,.24s0,.39,0,.6,0,.21,0,.32l0,.63c0,.12,0,.23,0,.36s0,.46,0,.7,0,.22,0,.33l0,1.07v.2c0,.3,0,.61,0,.92v.41c0,.24,0,.48,0,.72v1.57c0,.32,0,.63,0,.94v.15c0,.36,0,.71,0,1v.27c0,.24,0,.48,0,.71s0,.22,0,.32,0,.4,0,.59,0,.2,0,.29,0,.38,0,.56a1.27,1.27,0,0,1,0,.2c0,.22,0,.42.05.6h0c0,.21,0,.38.06.52a6.09,6.09,0,0,0,.31,1.19s0,.1,0,.15a.6.6,0,0,0,.06.11,4.65,4.65,0,0,0,.56,1l0,.05a4.23,4.23,0,0,0,.44.51l4.41,4.43a16.36,16.36,0,0,1-2.45-.29,10,10,0,0,1-1.17-.38A8,8,0,0,1,410,451h0Zm22.39-24.82c0,.08,0,.15,0,.22s0,.21,0,.32,0,.46,0,.7a2.26,2.26,0,0,0,0,.26c0,.22,0,.46,0,.69l-2.74-2.74c.47,0,.88.07,1.17.11A6.32,6.32,0,0,1,438.44,432.21Zm-6.26-.7s-.05.05-.09.06l-.08,0a1.91,1.91,0,0,1-.67.14,2,2,0,0,1-.87-.25Zm-3,0h1.14l5.73,5.75a1.84,1.84,0,0,0,1.3.54,1.86,1.86,0,0,0,.67-.13l.09,0a2.44,2.44,0,0,0,.41-.24v1c0,.13,0,.25,0,.38,0,.4,0,.8,0,1.19v.24c0,.32,0,.64,0,1,0,.13,0,.26,0,.39l0,.77c0,.13,0,.27,0,.39,0,.27,0,.52,0,.77,0,.1,0,.21,0,.31,0,.35,0,.67-.06,1,0,0,0,.06,0,.09,0,.27,0,.52-.07.76,0,.06,0,.13,0,.19,0,.25-.06.49-.09.69a.13.13,0,0,0,0,.06c0,.22-.08.41-.12.56a11.71,11.71,0,0,1-.38,1.14c-.11.26-.23.51-.35.76s-.13.29-.21.42a9.08,9.08,0,0,1-.72,1.07,1.59,1.59,0,0,1-.13.13,7.65,7.65,0,0,1-.8.81l-.34.26a6.19,6.19,0,0,1-.75.51l-.42.23c-.29.14-.58.26-.89.38l-.41.15a10.45,10.45,0,0,1-1.44.34,75.07,75.07,0,0,1-8.55.35c-2,0-4-.05-5.57-.13v0a2.6,2.6,0,0,0-.1-.25,7.41,7.41,0,0,1-.31-1.19c0-.14,0-.32-.06-.52s0-.39,0-.62a1.27,1.27,0,0,1,0-.2c0-.17,0-.35,0-.55s0-.2,0-.3,0-.38,0-.58,0-.22,0-.33,0-.44,0-.67,0-.21,0-.32c0-.33,0-.67,0-1v-1.49c0-.25,0-.5,0-.75v-1.19c0-.12,0-.24,0-.36,0-.32,0-.63,0-.95V442q0-.56,0-1.08c0-.1,0-.19,0-.29s0-.51,0-.75,0-.22,0-.33l0-.65c0-.1,0-.21,0-.31s0-.42,0-.62,0-.15,0-.22,0-.35,0-.52a2.12,2.12,0,0,0,0-.24c0-.23.05-.43.08-.6s.11-.49.17-.73.07-.25.11-.37.13-.34.2-.5l.15-.31c.07-.13.16-.26.24-.39s.15-.24.24-.36.15-.16.23-.25a4.78,4.78,0,0,1,.45-.45,3.15,3.15,0,0,1,.29-.22,3.58,3.58,0,0,1,.52-.34l.33-.17a6.11,6.11,0,0,1,.64-.26l.32-.11a6.86,6.86,0,0,1,1.06-.21C423,431.57,426.1,431.48,429.19,431.48Z" transform="translate(-407.54 -422.63)"/><path class="cls-3" d="M431.35,428h0a1.85,1.85,0,0,1,1.84,1.86,1.89,1.89,0,0,1-1.88,1.86,1.86,1.86,0,0,1,0-3.72Z" transform="translate(-407.54 -422.63)"/><path class="cls-3" d="M438.34,430.4c.23,2.44.38,14-.34,16.66a7.92,7.92,0,0,1-6.84,6.2,75.07,75.07,0,0,1-8.55.35,52.67,52.67,0,0,1-8.61-.46,7.79,7.79,0,0,1-6.17-6.76c-.41-2.61-.46-14.75.3-17.39a7.88,7.88,0,0,1,6.75-6,60,60,0,0,1,7.76-.35c2.9,0,5.81.08,7.57.17a8.53,8.53,0,0,1,5.66,2.32A8.18,8.18,0,0,1,438.34,430.4Zm-3,15.48a112.25,112.25,0,0,0,.19-15.21,5.2,5.2,0,0,0-4.64-4.94,68.93,68.93,0,0,0-7.75-.3c-3.08,0-6.15.09-7.5.23a5.31,5.31,0,0,0-5,4.67A105.24,105.24,0,0,0,410.6,446a5,5,0,0,0,3.82,4.38,47.67,47.67,0,0,0,8.34.46c3.25,0,6.44-.11,7.64-.24a5.29,5.29,0,0,0,5-4.69" transform="translate(-407.54 -422.63)"/><path class="cls-3" d="M423.1,430.18a7.88,7.88,0,0,1,7.88,7.95,8,8,0,0,1-8,7.94,7.86,7.86,0,0,1-7.88-7.95A8,8,0,0,1,423.1,430.18ZM423,443.26a5.18,5.18,0,0,0,5.18-5.09,5.08,5.08,0,0,0-5-5.19h-.05a5.18,5.18,0,0,0-5.18,5.09,5.09,5.09,0,0,0,5.05,5.19h0" transform="translate(-407.54 -422.63)"/></g></g></svg>