<svg id="Layer_1" data-name="Layer 1" xmlns="http://www.w3.org/2000/svg" viewBox="0 0 786.08 846.84"><defs><style>.cls-1{fill:#bebebe;}.cls-2{fill:#2e2c2c;}.cls-3{fill:#c0e0e1;}.cls-4{fill:#e6e5e2;}</style></defs><title>SiteWork</title><path class="cls-1" d="M45,652,507.52,386.46l.92-364.78c0-9.8-14.19-15-25.39-17.59a32.5,32.5,0,0,0-23.44,3.59L64.44,234.05A36.74,36.74,0,0,0,46,265.85Z" transform="translate(-44.99 -3.28)"/><path class="cls-2" d="M57.31,646,506.52,388.18l.92-366.5a13.75,13.75,0,0,0-20.59-12l-414,237.15A29,29,0,0,0,58.26,272Z" transform="translate(-44.99 -3.28)"/><polygon class="cls-3" points="443.99 27.7 33 263.61 32.14 608.64 443.99 372.22 443.99 27.7"/><path class="cls-1" d="M830.24,582.05c-.59-.42-359.13-174.93-359.13-174.93L46.53,652,380.82,845.19a36.77,36.77,0,0,0,36.79,0S763.5,645.24,822.55,611a17.1,17.1,0,0,0,8.52-14.82Z" transform="translate(-44.99 -3.28)"/><path class="cls-4" d="M57.85,644.3,506.54,385.54,823.85,568.93a13.76,13.76,0,0,1,0,23.83L410.77,831.47a29,29,0,0,1-29.07,0Z" transform="translate(-44.99 -3.28)"/><path class="cls-2" d="M182,652.26l-22.34,12.82-22.58-12.76,22.34-12.83Z" transform="translate(-44.99 -3.28)"/><path class="cls-2" d="M215,633.32l-22.34,12.83-22.59-12.77c8.94-5.13,13.41-7.69,22.34-12.83Z" transform="translate(-44.99 -3.28)"/><path class="cls-2" d="M248,614.39l-22.34,12.82-22.58-12.76,22.34-12.83Z" transform="translate(-44.99 -3.28)"/><path class="cls-2" d="M281,595.45l-22.34,12.83L236,595.51l22.34-12.83Z" transform="translate(-44.99 -3.28)"/><path class="cls-2" d="M313.94,576.51,291.6,589.34c-9-5.1-13.56-7.66-22.59-12.77l22.34-12.82Z" transform="translate(-44.99 -3.28)"/><path class="cls-2" d="M346.91,557.58l-22.34,12.83L302,557.64l22.34-12.83Z" transform="translate(-44.99 -3.28)"/><path class="cls-2" d="M379.89,538.64l-22.34,12.83L335,538.7l22.35-12.83Z" transform="translate(-44.99 -3.28)"/><path class="cls-2" d="M412.87,519.7l-22.34,12.83-22.59-12.77c8.94-5.13,13.41-7.69,22.34-12.83Z" transform="translate(-44.99 -3.28)"/><path class="cls-2" d="M445.85,500.77,423.5,513.6l-22.58-12.77L423.26,488Z" transform="translate(-44.99 -3.28)"/><path class="cls-2" d="M478.82,481.83l-22.34,12.83L433.9,481.89l22.34-12.83Z" transform="translate(-44.99 -3.28)"/><path class="cls-2" d="M511.8,462.89l-22.34,12.83L466.87,463l22.34-12.83Z" transform="translate(-44.99 -3.28)"/><path class="cls-2" d="M544.77,444l-22.34,12.83L499.85,444l22.33-12.83Z" transform="translate(-44.99 -3.28)"/><path class="cls-2" d="M213.74,670.18c-8.94,5.13-13.41,7.69-22.34,12.83l-22.59-12.77,22.34-12.83Z" transform="translate(-44.99 -3.28)"/><path class="cls-2" d="M246.71,651.24l-22.34,12.83L201.78,651.3l22.34-12.83Z" transform="translate(-44.99 -3.28)"/><path class="cls-2" d="M279.69,632.31l-22.35,12.83-22.58-12.77,22.34-12.83Z" transform="translate(-44.99 -3.28)"/><path class="cls-2" d="M312.66,613.37,290.32,626.2l-22.59-12.77,22.34-12.83Z" transform="translate(-44.99 -3.28)"/><path class="cls-2" d="M345.64,594.43,323.3,607.26c-9-5.1-13.56-7.66-22.59-12.77l22.34-12.83C332.09,586.77,336.6,589.33,345.64,594.43Z" transform="translate(-44.99 -3.28)"/><path class="cls-2" d="M378.62,575.5l-22.35,12.83-22.58-12.77L356,562.73Z" transform="translate(-44.99 -3.28)"/><path class="cls-2" d="M411.59,556.56l-22.34,12.83-22.59-12.77L389,543.79Z" transform="translate(-44.99 -3.28)"/><path class="cls-2" d="M444.57,537.62l-22.34,12.83c-9-5.1-13.55-7.66-22.59-12.77,8.94-5.13,13.41-7.69,22.34-12.83Z" transform="translate(-44.99 -3.28)"/><path class="cls-2" d="M477.55,518.69c-8.94,5.13-13.41,7.69-22.34,12.83l-22.59-12.77L455,505.92Z" transform="translate(-44.99 -3.28)"/><path class="cls-2" d="M510.52,499.75l-22.34,12.83L465.6,499.81,487.94,487Z" transform="translate(-44.99 -3.28)"/><path class="cls-2" d="M543.5,480.82l-22.34,12.82-22.59-12.76,22.34-12.83C530,473.15,534.46,475.71,543.5,480.82Z" transform="translate(-44.99 -3.28)"/><path class="cls-2" d="M576.47,461.88,539,483.39l-22.59-12.77,37.45-21.51Z" transform="translate(-44.99 -3.28)"/><ellipse class="cls-2" cx="230.35" cy="683.89" rx="31.19" ry="15.37" transform="translate(-232.63 92.35) rotate(-16.78)"/><path class="cls-2" d="M278.41,669.16,256.07,682l-22.59-12.77c8.94-5.13,13.41-7.69,22.34-12.83Z" transform="translate(-44.99 -3.28)"/><path class="cls-2" d="M311.39,650.23l-22.34,12.83-22.59-12.77,22.34-12.83Z" transform="translate(-44.99 -3.28)"/><path class="cls-2" d="M344.37,631.29,322,644.12l-22.59-12.77,22.35-12.83Z" transform="translate(-44.99 -3.28)"/><ellipse class="cls-2" cx="354.88" cy="612.39" rx="12.8" ry="22.47" transform="translate(-303.43 962.36) rotate(-89.85)"/><ellipse class="cls-2" cx="387.85" cy="593.45" rx="12.8" ry="22.47" transform="translate(-251.6 976.46) rotate(-89.85)"/><ellipse class="cls-2" cx="420.83" cy="574.51" rx="12.8" ry="22.47" transform="translate(-199.77 990.55) rotate(-89.85)"/><ellipse class="cls-2" cx="453.81" cy="555.57" rx="12.8" ry="22.47" transform="translate(-147.95 1004.63) rotate(-89.85)"/><ellipse class="cls-2" cx="486.79" cy="536.64" rx="12.8" ry="22.47" transform="matrix(0, -1, 1, 0, -96.12, 1018.72)"/><path class="cls-2" d="M542.23,517.67,519.89,530.5,497.3,517.73l22.34-12.83Z" transform="translate(-44.99 -3.28)"/><path class="cls-2" d="M575.2,498.74l-22.34,12.83c-9-5.11-13.55-7.67-22.59-12.77L552.61,486Z" transform="translate(-44.99 -3.28)"/><path class="cls-2" d="M608.17,479.8l-22.33,12.83-22.59-12.77L585.59,467Z" transform="translate(-44.99 -3.28)"/><path class="cls-2" d="M277.14,706,254.8,718.85l-22.59-12.77,22.34-12.83Z" transform="translate(-44.99 -3.28)"/><path class="cls-2" d="M310.12,687.08l-22.34,12.83c-9-5.1-13.56-7.66-22.59-12.77l22.34-12.82Z" transform="translate(-44.99 -3.28)"/><path class="cls-2" d="M343.09,668.15,320.75,681l-22.59-12.77,22.34-12.83Z" transform="translate(-44.99 -3.28)"/><path class="cls-2" d="M376.07,649.21,353.73,662l-22.59-12.77,22.34-12.83C362.52,641.55,367,644.11,376.07,649.21Z" transform="translate(-44.99 -3.28)"/><path class="cls-2" d="M409,630.28,386.7,643.11c-9-5.11-13.55-7.67-22.59-12.77l22.35-12.83Z" transform="translate(-44.99 -3.28)"/><path class="cls-2" d="M442,611.34l-22.34,12.83L397.09,611.4l22.34-12.83Z" transform="translate(-44.99 -3.28)"/><path class="cls-2" d="M475,592.4l-22.34,12.83-22.59-12.77,22.34-12.83C461.45,584.74,466,587.3,475,592.4Z" transform="translate(-44.99 -3.28)"/><path class="cls-2" d="M508,573.47,485.63,586.3l-22.58-12.77c8.93-5.14,13.4-7.7,22.34-12.83Z" transform="translate(-44.99 -3.28)"/><path class="cls-2" d="M541,554.53l-22.34,12.83L496,554.59l22.35-12.83Z" transform="translate(-44.99 -3.28)"/><path class="cls-2" d="M573.93,535.59l-22.34,12.83L529,535.65c8.94-5.13,13.41-7.69,22.34-12.83C560.38,527.93,564.89,530.49,573.93,535.59Z" transform="translate(-44.99 -3.28)"/><path class="cls-2" d="M621.15,508.48l-36.59,21L562,516.72l36.58-21Z" transform="translate(-44.99 -3.28)"/><path class="cls-2" d="M639.88,497.72l-22.34,12.83L595,497.78,617.29,485C626.32,490.06,630.84,492.62,639.88,497.72Z" transform="translate(-44.99 -3.28)"/><path class="cls-2" d="M313.22,726.42l-22.34,12.83L268.3,726.48l22.34-12.83Z" transform="translate(-44.99 -3.28)"/><path class="cls-2" d="M346.2,707.48l-22.34,12.83-22.59-12.77c8.94-5.13,13.41-7.69,22.34-12.83C332.65,699.82,337.16,702.38,346.2,707.48Z" transform="translate(-44.99 -3.28)"/><path class="cls-2" d="M379.17,688.55l-22.34,12.83-22.58-12.77,22.34-12.83Z" transform="translate(-44.99 -3.28)"/><path class="cls-2" d="M577,574.93,389.81,682.44l-22.59-12.77L554.45,562.16Z" transform="translate(-44.99 -3.28)"/><path class="cls-2" d="M610,556l-22.34,12.83-22.58-12.77,22.34-12.83Z" transform="translate(-44.99 -3.28)"/><path class="cls-2" d="M643,537.06l-22.34,12.82-22.59-12.76,22.34-12.83Z" transform="translate(-44.99 -3.28)"/><path class="cls-2" d="M676,518.12,653.62,531,631,518.18l22.33-12.83Z" transform="translate(-44.99 -3.28)"/><polygon class="cls-1" points="379.06 688.35 533.02 599.47 621 653.66 467.1 742.58 379.06 688.35"/></svg>