<svg xmlns="http://www.w3.org/2000/svg" viewBox="0 0 38.04 28.48"><defs><style>.cls-1{isolation:isolate;}.cls-2{fill:#ccc;mix-blend-mode:multiply;}.cls-3{fill:#fff;}</style></defs><title>yt</title><g class="cls-1"><g id="Layer_1" data-name="Layer 1"><path class="cls-2" d="M435.06,444,429,438l-9.9-5.18c0,3.45-.06,6.88-.08,10.35l6,6c0-3.47.05-6.89.08-10.35h0Z" transform="translate(-407.02 -427.11)"/><path class="cls-2" d="M445,445.81c0-.64,0-1.29,0-1.93v-.35c0-.63,0-1.25,0-1.85,0-.12,0-.24,0-.36,0-.61-.06-1.21-.11-1.77v0l-.06-.62c0-.14,0-.28-.05-.41s-.06-.44-.1-.65,0-.21,0-.3-.08-.4-.12-.58,0-.17-.05-.24c-.07-.25-.13-.47-.2-.65l0-.05s0-.06-.05-.09a4,4,0,0,0-.4-.74l-.06-.1a4.23,4.23,0,0,0-.34-.4l-6-6a3.11,3.11,0,0,1,.39.49,3.75,3.75,0,0,1,.4.74c0,.05,0,.09.07.14a6.34,6.34,0,0,1,.2.65l.06.29c0,.17.08.34.11.53s0,.23.06.34.06.39.09.61,0,.28,0,.41,0,.42.07.65c.05.56.09,1.16.12,1.78,0,.11,0,.23,0,.35,0,.6,0,1.23,0,1.86v.34c0,.64,0,1.29,0,1.92v.07c0,.65-.06,1.28-.1,1.89,0,.15,0,.31,0,.46l0,.41c0,.24,0,.47-.08.69s0,.26,0,.39-.06.45-.1.67a3.06,3.06,0,0,1-.05.32c0,.29-.1.57-.15.83a.07.07,0,0,0,0,0c-.06.26-.13.49-.19.71l-.06.18a4.07,4.07,0,0,1-.21.54,2.5,2.5,0,0,1-.23.39,2.13,2.13,0,0,1-.16.25,1.54,1.54,0,0,1-.17.19,4.54,4.54,0,0,1-.38.38l-.17.14a4.54,4.54,0,0,1-.63.41c-1.08.56-7.34.82-13.48.82-5.65,0-11.19-.22-12.49-.65a3.79,3.79,0,0,1-1.55-.93l6,6.05a3.72,3.72,0,0,0,1.55.93c1.29.42,6.83.65,12.48.65,6.14,0,12.4-.27,13.48-.82a4.89,4.89,0,0,0,.63-.41l.17-.14a4.68,4.68,0,0,0,.39-.38l.1-.1.06-.09.17-.25.12-.17c0-.07.07-.14.11-.22s.09-.21.13-.32a1.87,1.87,0,0,0,.07-.22l.06-.18c.07-.22.13-.45.19-.71h0s0,0,0-.06c.06-.25.11-.53.16-.82,0-.11,0-.22,0-.32l.09-.67c0-.13,0-.26.05-.39s0-.46.07-.69,0-.28,0-.42a1.79,1.79,0,0,1,0-.23c0-.07,0-.15,0-.22,0-.62.08-1.25.1-1.89Z" transform="translate(-407.02 -427.11)"/><path class="cls-3" d="M438.23,430c1.15,3,1.1,14-.28,16.94a3.85,3.85,0,0,1-1.74,1.76c-1.08.56-7.34.82-13.48.82-5.65,0-11.19-.22-12.49-.65a3.69,3.69,0,0,1-2.44-2.39c-1-2.92-1.27-15.16.8-17.58a4,4,0,0,1,2.69-1.41c2.46-.27,7.21-.4,11.89-.4,5.84,0,11.57.2,12.66.59A3.78,3.78,0,0,1,438.23,430Zm-19.17,13.14c3.32-1.73,6.63-3.44,10-5.17l-9.9-5.18c0,3.45-.06,6.88-.08,10.35" transform="translate(-407.02 -427.11)"/></g></g></svg>